PathFileType	4	(X/Y/Z)	G:\Shared drives\HPL_Drive\Pi-Spi Study\20230118_AMCsubject1\Trimmed_right_flex_18001_rotated.trc
DataRate	CameraRate	NumFrames	NumMarkers	Units	OrigDataRate	OrigDataStartFrame	OrigNumFrames
200.00	200.00	       11	35	mm	200.00	51	       200
Frame#	Time	C7			Sternum			r_AMC1			r_AMC2			r_AMC3			l_AMC1			l_AMC2			l_AMC3			PX			T8			r_humerous			r_elbow_medial			r_elbow_lateral			r_forearm			r_wrist_radius			r_wrist_ulna			r_MCP_1			r_MCP_3			l_humerous			l_elbow_medial			l_elbow_lateral			l_forearm			l_wrist_radius			l_wrist_ulna			l_MCP_1			l_MCP_3			r_ASIS			r_PSIS			l_ASIS			l_PSIS			r_IC			l_IC			TS			AI			AA			
		X1	Y1	Z1	X2	Y2	Z2	X3	Y3	Z3	X4	Y4	Z4	X5	Y5	Z5	X6	Y6	Z6	X7	Y7	Z7	X8	Y8	Z8	X9	Y9	Z9	X10	Y10	Z10	X11	Y11	Z11	X12	Y12	Z12	X13	Y13	Z13	X14	Y14	Z14	X15	Y15	Z15	X16	Y16	Z16	X17	Y17	Z17	X18	Y18	Z18	X19	Y19	Z19	X20	Y20	Z20	X21	Y21	Z21	X22	Y22	Z22	X23	Y23	Z23	X24	Y24	Z24	X25	Y25	Z25	X26	Y26	Z26	X27	Y27	Z27	X28	Y28	Z28	X29	Y29	Z29	X30	Y30	Z30	X31	Y31	Z31	X32	Y32	Z32	X33	Y33	Z33	X34	Y34	Z34	X35	Y35	Z35	

51	0.25	180.8686	1371.7255	-233.6	318.3993	1321.9862	-229.9836	166.0676	1337.3527	-95.2088	198.5137	1372.5112	-80.0821	193.1469	1393.5238	-119.4198	192.522	1313.823	-388.5123	227.3408	1307.4272	-425.231	250.5372	1348.3563	-400.4869	385.9906	1131.1564	-216.9802	152.3304	1188.4553	-226.7039	270.879	1474.7379	-77.0864	374.5857	1562.9227	-9.8684	317.9626	1578.5112	10.9217	341.9316	1742.8783	28.9188	340.5109	1817.1626	13.9767	385.929	1804.9412	34.6359	349.2762	1902.3181	18.3794	394.8773	1894.2205	31.6937	314.1042	1119.5118	-424.5161	262.7422	986.2256	-376.3073	256.9526	980.5202	-429.7986	302.8324	834.8249	-467.376	352.0318	767.5364	-475.5354	310.8707	759.81	-459.1975	361.1873	689.6139	-489.5344	320.4061	684.0357	-467.0215	348.7164	910.4693	-73.9364	163.499	930.0269	-161.4126	358.5079	892.5785	-331.2716	168.5231	922.9479	-263.0405	267.6316	971.8872	-47.947	271.8447	938.9856	-371.8549	105.4225	1284.5276	-124.9313	142.0363	1207.8031	-68.0978	157.1081	1373.2515	-22.8586
52	0.255	180.8685	1371.7125	-233.598	318.4018	1321.9878	-229.9574	166.0613	1337.3456	-95.196	198.5224	1372.5254	-80.0472	193.1597	1393.5302	-119.4271	192.6631	1313.4677	-387.8215	227.3955	1307.448	-425.2374	250.5853	1348.3743	-400.4702	386.0449	1131.1301	-217.0201	152.3314	1188.4446	-226.7115	270.8779	1474.7449	-77.0962	375.1484	1562.9724	-9.3916	317.9355	1578.517	10.9118	341.9137	1742.9274	28.8964	340.4943	1817.15	13.9446	385.8835	1804.9739	34.6498	349.2702	1902.4385	18.3702	394.8888	1894.2001	31.6825	314.1775	1119.4888	-424.513	262.7416	986.2521	-376.3438	256.9879	980.538	-429.813	302.8841	834.8598	-467.4144	351.9467	767.4028	-475.4792	310.9346	759.8256	-459.2146	361.4238	689.9244	-490.3904	320.4479	684.0506	-467.0608	348.775	910.5082	-73.9132	163.5376	930.0342	-161.4228	358.5282	892.5533	-331.2433	168.5707	922.9341	-263.0437	267.5452	971.9797	-47.9569	271.8759	938.9756	-371.775	105.4129	1284.5209	-124.9297	142.0651	1207.7861	-68.1633	157.0989	1373.2249	-22.8669
53	0.26	180.8729	1371.7198	-233.6058	318.4297	1322.0427	-229.913	166.0835	1337.3606	-95.1941	198.5196	1372.5232	-80.0559	193.1621	1393.5334	-119.416	192.5844	1313.8899	-388.5645	227.4403	1307.4416	-425.2546	250.639	1348.3771	-400.4772	386.0672	1131.157	-216.9719	152.3428	1188.448	-226.7219	270.9184	1474.735	-77.1294	374.5366	1563.0142	-9.8629	317.8981	1578.5249	10.8929	341.9066	1742.9166	28.8554	340.4882	1817.1445	13.9126	385.8884	1804.9971	34.6378	349.25	1902.3773	18.3656	394.8607	1894.2877	31.6957	314.2405	1119.5438	-424.506	262.7908	986.2589	-376.3773	257.0373	980.5522	-429.8493	302.9196	834.8785	-467.4607	351.9142	767.5091	-475.4847	310.9457	759.8409	-459.2514	361.4548	689.7683	-489.827	320.4948	684.0393	-467.1052	348.7884	910.4955	-73.8853	163.5334	930.0295	-161.4077	358.5597	892.5704	-331.2262	168.4848	922.7691	-262.8577	267.548	971.9604	-47.926	271.7924	939.0843	-371.773	105.4194	1284.5176	-124.9536	142.0049	1207.3854	-68.5321	157.1116	1373.2353	-22.8691
54	0.265	180.8852	1371.7167	-233.6133	318.4384	1322.0516	-229.8992	166.0718	1337.3639	-95.1998	198.513	1372.5447	-80.0518	193.1699	1393.5532	-119.4231	192.6478	1313.8849	-388.545	227.5102	1307.4691	-425.2341	250.6642	1348.3872	-400.4732	386.0571	1131.1688	-216.9409	152.3537	1188.4529	-226.7339	270.9099	1474.7295	-77.149	374.5243	1563.027	-9.8376	317.885	1578.5409	10.8758	341.8742	1742.9756	28.8445	340.4721	1817.1744	13.8974	385.8553	1805.0035	34.6514	349.2825	1902.4034	18.3216	394.8698	1894.267	31.6649	314.2921	1119.5483	-424.5288	262.8417	986.2381	-376.3765	257.0993	980.557	-429.857	302.9671	834.8874	-467.4807	352.1592	767.5837	-475.5937	310.9877	759.8433	-459.2783	361.5129	689.7963	-489.8535	320.5423	684.0566	-467.1258	348.823	910.4929	-73.907	163.5482	930.0297	-161.3934	358.5944	892.5528	-331.218	168.6166	922.9434	-263.0474	267.6083	971.98	-47.9341	271.8563	939.0948	-371.8155	105.4292	1284.4993	-124.9976	142.0179	1207.3912	-68.5826	157.0916	1373.2209	-22.9019
55	0.27	180.8907	1371.7153	-233.6036	318.4322	1322.076	-229.8962	166.0888	1337.3549	-95.2065	198.514	1372.5441	-80.0513	193.1852	1393.5455	-119.425	192.6464	1313.9641	-388.6045	227.5392	1307.4772	-425.2599	250.6981	1348.4056	-400.4719	386.0851	1131.1548	-216.9115	152.3563	1188.4526	-226.7475	270.9458	1474.7606	-77.1655	374.5313	1563.0502	-9.8945	317.8812	1578.5675	10.8545	341.8702	1742.9722	28.8477	340.4915	1817.1832	13.8732	385.8433	1805.0372	34.6514	349.2545	1902.4026	18.3104	394.8576	1894.3091	31.644	314.3181	1119.623	-424.5893	262.8736	986.2782	-376.404	257.1755	980.6802	-429.9152	303.0273	834.8876	-467.516	352.2449	767.5794	-475.582	311.0723	759.8541	-459.2625	361.5706	689.9631	-490.44	320.5398	684.0983	-467.1881	348.7828	910.4965	-73.8704	163.5457	930.0092	-161.398	358.5906	892.5712	-331.2015	168.5415	922.7735	-262.8495	267.5875	971.9835	-47.9332	271.9158	939.0537	-371.7669	105.4241	1284.519	-125.0029	142.0304	1207.3831	-68.6448	157.0942	1373.187	-22.8956
56	0.275	180.9013	1371.7096	-233.6208	318.4692	1322.0786	-229.8854	166.0927	1337.3684	-95.2014	198.5361	1372.537	-80.0694	193.1787	1393.5497	-119.4389	192.7491	1313.916	-388.595	227.6073	1307.4972	-425.2507	250.7408	1348.4159	-400.4735	386.0738	1131.1985	-216.9022	152.4088	1188.443	-226.746	270.975	1474.7448	-77.1949	374.5184	1563.1038	-9.9518	317.8644	1578.5557	10.8336	341.8487	1742.9917	28.8158	340.4668	1817.1937	13.8777	385.8436	1805.0376	34.6168	349.2695	1902.4574	18.2709	394.8326	1894.3428	31.6691	314.3815	1119.6112	-424.5349	262.9295	986.2807	-376.4272	257.2022	980.5936	-429.9049	303.0911	834.967	-467.539	352.1971	767.6629	-475.6326	311.121	759.8635	-459.2759	361.6095	689.8199	-489.9073	320.586	684.1124	-467.2418	348.7605	910.4961	-73.8706	163.5875	930.0298	-161.4176	358.5889	892.5497	-331.1635	168.5805	922.7626	-262.8522	267.5521	972.0258	-47.9554	271.8878	939.078	-371.7617	105.4129	1284.5215	-125.0119	142.0098	1207.3839	-68.6583	157.0858	1373.2061	-22.9176
57	0.28	180.9217	1371.6981	-233.6183	318.459	1322.0964	-229.8707	166.1073	1337.3837	-95.219	198.5271	1372.5625	-80.0702	193.1718	1393.5448	-119.4359	192.719	1313.9742	-388.6031	227.6454	1307.5061	-425.2535	250.7719	1348.4246	-400.4613	386.1172	1131.1956	-216.8486	152.4128	1188.4443	-226.7532	270.9793	1474.7391	-77.2105	375.0805	1563.1123	-9.376	317.8389	1578.5775	10.8204	341.8537	1743.0007	28.808	340.4732	1817.2014	13.8754	385.8441	1805.0651	34.6481	349.2599	1902.4291	18.3321	394.8486	1894.3099	31.6572	314.401	1119.665	-424.5303	262.9837	986.2972	-376.4554	257.2486	980.6244	-429.938	303.1406	834.9686	-467.5584	352.3011	767.6628	-475.6549	311.1311	759.8901	-459.3608	361.586	690.0748	-490.4784	320.6575	684.1097	-467.2866	348.806	910.5034	-73.8542	163.5592	930.041	-161.398	358.6465	892.5296	-331.159	168.6027	922.7717	-262.8864	267.5799	971.9964	-47.9528	272.1034	939.0134	-371.8133	105.41	1284.5281	-125.0306	141.996	1207.3844	-68.6607	157.0772	1373.218	-22.9175
58	0.285	180.9413	1371.693	-233.6356	318.4712	1322.0466	-229.9142	166.0923	1337.3798	-95.2666	198.5217	1372.5436	-80.0973	193.1809	1393.5563	-119.452	192.8115	1313.96	-388.6209	227.7195	1307.5232	-425.2576	250.8292	1348.4528	-400.4413	386.1372	1131.2046	-216.8401	152.4286	1188.448	-226.7554	270.9962	1474.7422	-77.2137	374.5055	1563.0826	-9.8903	317.8592	1578.5977	10.8193	341.829	1743.0299	28.816	340.4698	1817.1854	13.8743	385.8314	1805.1067	34.6398	349.2173	1902.5216	18.3234	394.8451	1894.3079	31.6599	314.452	1119.6534	-424.546	263.0172	986.2951	-376.4717	257.278	980.6531	-429.9622	303.2054	834.9929	-467.5968	352.3648	767.6335	-475.6887	311.2213	759.9141	-459.3471	361.6654	690.059	-490.527	320.7051	684.0956	-467.2841	348.722	910.4747	-73.7985	163.6017	930.0502	-161.3923	358.6698	892.5557	-331.1354	168.6411	922.7764	-262.8701	267.5333	972.0723	-47.9319	271.9085	939.2035	-371.7404	105.4231	1284.5386	-125.0667	141.9708	1207.4136	-68.6337	157.0488	1373.2417	-22.9671
59	0.29	180.9627	1371.7036	-233.6411	318.5112	1322.1316	-229.8576	166.1063	1337.3781	-95.2369	198.5488	1372.5564	-80.0777	193.1848	1393.5502	-119.4496	192.8005	1314.0148	-388.6009	227.7687	1307.5382	-425.2529	250.8535	1348.4499	-400.4404	386.1021	1131.2317	-216.8471	152.4556	1188.4509	-226.7647	270.9938	1474.7578	-77.2085	374.4962	1563.1354	-9.9161	317.8636	1578.5823	10.8161	341.8527	1743.022	28.8158	340.4769	1817.2028	13.8753	385.8089	1805.0471	34.6483	349.2482	1902.4548	18.3239	394.8474	1894.3698	31.6665	314.4899	1119.7283	-424.5503	263.0707	986.3345	-376.4851	257.3482	980.636	-430.0065	303.2581	835.0331	-467.6233	352.368	767.7218	-475.7011	311.29	759.918	-459.3598	361.7234	690.0902	-490.5707	320.7681	684.0952	-467.3129	348.7781	910.524	-73.7927	163.6259	930.0417	-161.4046	358.6766	892.5393	-331.1074	168.6664	922.7775	-262.8852	267.5306	972.0458	-47.931	272.0421	939.1408	-371.7534	105.4192	1284.569	-125.0972	141.9018	1207.3993	-68.6113	157.0317	1373.2737	-22.9668
60	0.295	180.9505	1371.7042	-233.6339	318.5266	1322.1334	-229.8409	166.1111	1337.3951	-95.2448	198.5635	1372.5352	-80.0914	193.1924	1393.5457	-119.4646	192.843	1314.0116	-388.613	227.8032	1307.5395	-425.2417	250.902	1348.4795	-400.4352	386.1241	1131.229	-216.808	152.4679	1188.4404	-226.7745	271.0131	1474.7532	-77.2092	374.5059	1563.1664	-9.9163	317.8627	1578.6124	10.8193	341.8558	1743.0148	28.8117	340.4743	1817.2079	13.8873	385.8407	1805.0801	34.6381	349.2552	1902.4721	18.3275	394.8332	1894.3646	31.6953	314.5482	1119.6807	-424.5704	263.122	986.3751	-376.5272	257.4026	980.6539	-430.0231	303.3489	835.0612	-467.6624	352.49	767.6578	-475.7285	311.3187	759.9556	-459.4001	361.8661	689.8923	-490.0172	320.8121	684.1354	-467.3588	348.7644	910.529	-73.7758	163.614	930.0241	-161.4135	358.7212	892.5189	-331.0932	168.681	922.775	-262.8809	267.5668	972.0037	-47.8862	272.058	939.1336	-371.7396	105.4096	1284.6001	-125.1147	141.8806	1207.8009	-68.1688	157.0458	1373.2898	-22.9741
61	0.3	180.9681	1371.694	-233.6456	318.5343	1322.1252	-229.8266	166.111	1337.3901	-95.2629	198.5351	1372.572	-80.0774	193.2104	1393.5535	-119.463	192.8929	1313.9992	-388.611	227.8591	1307.5546	-425.2564	250.9333	1348.4861	-400.425	386.1669	1131.2551	-216.8084	152.4656	1188.4478	-226.7867	270.9855	1474.7773	-77.1976	374.511	1563.1314	-9.8929	317.8642	1578.5941	10.8297	341.8658	1743.0038	28.8275	340.4866	1817.2211	13.8904	385.8922	1805.0734	34.5773	349.2681	1902.4252	18.3238	394.8495	1894.3355	31.6665	314.6038	1119.735	-424.5892	263.1604	986.3733	-376.5424	257.4513	980.6654	-430.0399	303.3929	835.0764	-467.6781	352.4759	767.7224	-475.7357	311.3742	759.984	-459.4355	361.7729	690.2007	-490.5736	320.918	684.1208	-467.3485	348.7442	910.4937	-73.7441	163.6301	930.0536	-161.4254	358.7419	892.5228	-331.0917	168.7152	922.7815	-262.8819	267.5529	972.033	-47.8997	272.2097	939.0228	-371.676	105.4339	1284.6284	-125.1246	141.9197	1207.8683	-68.1808	157.0585	1373.3198	-22.987
